<?xml version="1.0" encoding="UTF-8" standalone="no"?>

<svg
   xmlns:dc="http://purl.org/dc/elements/1.1/"
   xmlns:cc="http://creativecommons.org/ns#"
   xmlns:rdf="http://www.w3.org/1999/02/22-rdf-syntax-ns#"
   xmlns:svg="http://www.w3.org/2000/svg"
   xmlns="http://www.w3.org/2000/svg"
   xmlns:sodipodi="http://sodipodi.sourceforge.net/DTD/sodipodi-0.dtd"
   xmlns:inkscape="http://www.inkscape.org/namespaces/inkscape"
   id="svg2985"
   version="1.1"
   width="746.16687"
   height="889.73749">
  <path
     id="path2995"
     style="fill:#99cc33;fill-opacity:1"
     d="M 740.21243,393.60741 C 724.94793,349.18771 696.73703,298.06764 662.00516,251.89074 591.61935,158.3109 483.72683,72.773487 369.1899,19.746205 l -15.86564,-7.34533 4.31966,-1.25066 c 8.68656,-2.5149899 26.75598,-6.2235299 40.41161,-8.2940099 20.13853,-3.05342004 58.67695,-3.80740004 78.5,-1.53579 93.34561,10.6968499 168.81839,60.5518699 217.8751,143.9216749 36.8459,62.618 55.3675,145.97989 51.1446,230.19135 -0.623,12.42369 -1.4492,23.44401 -1.8359,24.48958 -0.5237,1.4156 -1.4243,-0.19715 -3.5269,-6.31561 z m -484.1569,495.62658 c -25.94031,-3.0873 -43.19794,-6.6548 -62,-12.8165 C 104.636,847.11321 37.48244,777.32772 4.4595596,679.39074 c -2.59633,-7.7 -4.59966997,-14.1247 -4.45187997,-14.2771 0.1478,-0.15241 5.61901997,3.04824 12.15828037,7.11255 108.19365,67.24499 224.77698,107.43263 345.88957,119.23219 25.64113,2.49813 65.40831,2.94862 89.18963,1.01037 36.61466,-2.98422 75.36196,-9.6617 102.26631,-17.62398 l 9.54406,-2.82454 -6.5,6.01775 c -16.18872,14.98765 -43.42518,35.46571 -66.5,49.99884 -53.86248,33.92397 -113.35406,55.16547 -170.35595,60.82557 -9.48937,0.9423 -52.59279,1.2108 -59.64405,0.3716 z"
     inkscape:connector-curvature="0" />
</svg>
